<?xml version="1.0" encoding="UTF-8"?>
<svg id="_Слой_1" data-name=" Слой 1" xmlns="http://www.w3.org/2000/svg" viewBox="0 0 512 279.95">
  <path d="M8.9,2.9c-3.1,1.9-5.3,4.4-6.8,7.3L0,14.7l.2,102.1.3,102,3,4.3c5.1,7.2,8.6,8.3,26.6,8.7l15.5.4,1.2,5.4c3.9,18.6,20.8,35.9,39.8,40.8,7.8,2,21.2,2.1,28.7.1,20-5.2,35.4-21.2,40.7-42.3l1.1-4.2h170.5l1.1,5.3c3.9,18.8,20.8,36.2,39.9,41.1,7.8,2,21.2,2.1,28.7.1,20-5.2,35.4-21.2,40.7-42.3l1.1-4.2h19.2c11,0,20.9-.5,23.2-1.1,5.5-1.5,12-8.2,13.5-13.9.9-3.3,1.1-13.6.7-38.5-.5-37.7-1.3-44.4-7.4-64.5-6.5-21.2-15.3-51.3-15.3-52.2,0-.4,3.3-.8,7.3-.8h7.3l5.2,16.4c5.4,17.2,6.9,19.6,12,19.6,2.8,0,7.2-4.2,7.2-6.8,0-1.1-2.7-10.4-6-20.8-7.8-24.4-6.7-23.4-24.5-23.4-11.9,0-13.4-.2-13.9-1.8-4-14-7.1-22.5-9.4-26.2-3.9-6.1-10.3-11.7-17.1-14.9l-5.6-2.6L224.5.2,13.4,0l-4.5,2.9ZM433.7,16.5c5.2,2.2,10,6.1,11.8,9.6l1.6,2.9H15v-5.8c0-3.2.5-6.3,1.2-7,.9-.9,48.4-1.2,207.5-1.2,183,0,206.8.2,210,1.5ZM61,79.5v35.5H15V44h46v35.5ZM90,79.5v35.5h-14V44h14v35.5ZM156,79.5v35.5h-51V44h51v35.5ZM184,79.5v35.5h-13V44h13v35.5ZM250.8,79.2l-.3,35.3h-51l-.3-35.3-.2-35.2h52l-.2,35.2ZM279,53.9c0,5.5.3,10.7.6,11.6,1,2.4,6,4.6,8.9,3.9,4.5-1.1,5.5-3.9,5.5-15.1v-10.3h51v71h-51v-10.2c0-9.1-.2-10.4-2.2-12.5-3-3.3-8-3.1-10.7.3-1.8,2.3-2.1,4.1-2.1,12.5v9.9h-13V44h13v9.9h0ZM374,79.5v35.6l-6.7-.3-6.8-.3-.3-35.3-.2-35.2h14v35.5ZM453.9,50.7c1.1,3.8,6.1,20.7,11.2,37.8,12.2,41,13.8,47.3,14.6,57.2l.6,8.3h-21.4c-18.1,0-22-.3-25-1.8-2-.9-12.9-9.1-24.3-18.2l-20.6-16.5V44h62.9l2,6.7h0ZM384.1,132.9c2.4,1.5,6.4,4.7,8.9,6.9l4.5,4.1-71.9.1h-72l-2.3,2.2c-2.8,2.6-3,6.7-.4,9.9l1.9,2.4,82.1.3,82.1.2,4.6,3.5c7.5,5.7,11.9,6.5,37.1,6.5h22.3v21.8c0,18.1-.3,22.1-1.6,24-1.5,2.1-2,2.2-20.9,2.2h-19.5l-.6-2.8c-2.6-12.4-7.4-21.4-16-29.8-20.2-20.1-52.9-21.7-74.6-3.7-9.4,7.7-16.6,19.3-19.3,30.8l-1.2,5-85.1.3-85.2.2-.6-2.7c-1.8-8.3-5.1-15.9-9.5-22.2-17-24.2-49.2-31-75.2-15.8-11.2,6.6-22.2,21.8-25.2,34.9l-1.1,5.3-13.6.3c-11.4.2-13.9,0-15.2-1.3-1.4-1.4-1.6-5.3-1.6-29.1v-27.4h103.5c73.6,0,104.1-.3,105.8-1.1,2.4-1.1,4.7-4.7,4.7-7.3,0-.7-.9-2.5-2.1-4l-2-2.6H15v-14h364.6l4.5,2.9h0ZM111.5,184.6c11.9,3,21.6,11.1,26.9,22.4,3.9,8.3,4.8,20.8,2.1,29.1-3.6,11.3-11.6,20.4-22.4,25.6-7.9,3.8-22,4.5-30.2,1.4-16.6-6.3-26.4-19.3-27.6-36.7-.9-12.5,3.6-23.4,13.2-32.2,10.9-10,24-13.3,38-9.6ZM393.5,184.6c12,3.1,21.5,11,26.8,22.2,3,6.3,3.2,7.4,3.2,17.7s-.2,11.5-2.9,17c-3.8,7.7-12.4,16.3-20.1,20-8.4,4-22.3,4.7-30.7,1.5-16.1-6-26.3-19.3-27.5-36-1-12.6,3.6-24.1,13.2-32.8,10.9-10,24-13.3,38-9.6h0Z" style="fill: #a6a6a6; opacity: .8;"/>
  <path d="M93.1,193.5c-7,2-11.1,4.6-16,10.1-13.5,15.4-8.6,39.3,10.2,49.1,4.5,2.4,6.4,2.8,13.7,2.8s9.3-.4,14.2-2.8c6.3-3.1,11.6-8.6,15-15.6,3.3-6.5,3.2-18.5-.1-25.8-2.7-6.1-10.3-13.6-16.4-16.3s-14.2-3.2-20.6-1.5h0ZM105.2,208c14.8,4.1,17.2,23.6,3.8,30.7-7.1,3.8-13.8,2.8-19.6-2.9-8.7-8.3-5.3-23.3,6.1-27.3,4.9-1.7,5.1-1.7,9.7-.5Z" style="fill: #a6a6a6; opacity: .8;"/>
  <path d="M375.1,193.5c-7,2-11.1,4.6-16,10.1-13.5,15.4-8.5,39.3,10.2,49.2,4.5,2.3,6.4,2.7,13.7,2.7s9.3-.4,14.2-2.8c6.3-3.1,11.6-8.6,15-15.6,3.3-6.5,3.2-18.5-.1-25.8-2.7-6.1-10.3-13.6-16.4-16.3s-14.2-3.2-20.6-1.5h0ZM387.3,208.1c5,1.3,10.3,6.1,11.8,10.6,2.5,7.7-1.4,17.2-8.5,20.4-7.2,3.3-13.6,2.2-19.2-3.3-8.7-8.3-5.3-23.3,6.1-27.3,4.9-1.7,5.1-1.7,9.8-.4h0Z" style="fill: #a6a6a6; opacity: .8;"/>
</svg>