<?xml version="1.0" encoding="UTF-8"?>
<svg id="_Слой_1" data-name=" Слой 1" xmlns="http://www.w3.org/2000/svg" viewBox="0 0 496.04 495.86">
  <path d="M200.12,1.46c-20.8,5.6-34.8,26.4-31.2,46.5,2.2,12.8,3.9,15.1,33.4,44.6l27.2,27.3h-37.6c-40.6,0-43.7.3-54.1,5.6-7.1,3.6-15.9,12.3-19.7,19.3-5.8,10.9-6.1,13.9-6.1,53.6v36l-6.4,3.3c-7.6,3.9-16.2,12.6-20,20-5.2,10.4-5.6,13.7-5.6,52.7v36l-6.4,3.3c-7.6,3.9-16.2,12.6-20,20-5.2,10.3-5.6,13.8-5.6,51.4v34.8h-21.5c-28.2,0-26.5-1.2-26.5,20,0,14.7.1,15.2,2.5,17.5l2.4,2.5h486.2l2.4-2.5c2.4-2.3,2.5-2.8,2.5-17.5,0-21.2,1.7-20-26.5-20h-21.5v-34.8c0-37.6-.4-41.1-5.6-51.4-3.8-7.4-12.4-16.1-20-20l-6.4-3.3v-36c0-39-.4-42.3-5.6-52.7-3.8-7.4-12.4-16.1-20-20l-6.4-3.3v-35.1c0-19.7-.4-37.5-1-40.5-2.5-13.1-12.4-26.6-23.9-32.8-10.9-5.8-13.7-6.1-55-6.1h-37.5l27.5-27.8c24.4-24.6,27.8-28.4,30.3-34,8.8-20.2-.4-44.7-20.2-53.9-17-7.9-34-4.5-48.8,9.9l-7.4,7.1-7.2-7c-8.3-8-14.7-11.6-23.3-13.2-7.5-1.4-10.7-1.3-17.4.5h0ZM218.62,17.56c3.8,1.3,7.2,3.9,15.5,12,14,13.6,13.9,13.6,26.8.9,12.1-11.8,16.2-14,25.6-14,11,0,18.5,4.9,23.3,15.2,3,6.5,2.8,14.3-.6,21.2-1.5,3.1-11.3,13.6-31.7,34l-29.5,29.5-28.9-28.9c-33-32.9-34.6-35.1-34.6-46.1.1-7.8,1.6-11.8,6.9-17.3,7.1-7.6,17-10,27.2-6.5h0ZM344.02,136.86c6.5,1.8,14.3,7.3,17.8,12.4,1.8,2.7,3.1,5.4,2.9,6s-3.3,1.4-6.9,1.8-11.2,1.9-16.9,3.3c-7.1,1.8-14.5,2.8-23.4,3.2-14.2.6-21.2-.2-39.5-4.4-10.3-2.4-13.5-2.7-30-2.7-17.4,0-19.3.2-32.5,3.3-22.9,5.4-41.5,5.4-62.9,0-4.3-1.1-10.7-2.3-14.3-2.6-3.8-.4-6.7-1.1-7-1.9-.7-2,4.6-9.2,9.6-12.8,9.3-6.8,3.7-6.5,106.6-6.5,57.6-.1,94.3.3,96.5.9ZM152.02,176.16c12.5,2.9,14.9,3.1,32,3.1s19.2-.1,32.5-3.4c13.2-3.2,15-3.4,31.5-3.4s18.3.2,31.5,3.4c13.3,3.3,14.9,3.4,32.5,3.4s19.5-.2,32-3.1c7.4-1.7,15.9-3.4,18.8-3.7l5.2-.7v60.1h-240v-60.1l5.3.7c2.8.3,11.3,2,18.7,3.7h0ZM382.82,251.76c3.5,1.9,7.4,4.8,8.8,6.4,3.3,4,7.4,12.1,7.4,14.8s-1.3,2.4-14.5-1.5c-16.3-4.9-30.1-4.6-48.5,1.2-12.8,4-25.7,3.8-40.7-.6-18.7-5.5-32.5-5.4-50.5.5-6.9,2.3-10.1,2.7-19.3,2.8-9.9,0-12.1-.4-22-3.5-10.2-3.3-11.9-3.5-24-3.5s-13.8.2-24,3.5c-9.9,3.1-12.1,3.5-22,3.5-9.2-.1-12.4-.5-19.3-2.8-4.5-1.5-10-3-12.2-3.3-3-.5-3.7-1-3.3-2.3,1.4-3.8,6.7-10.3,10.6-13,9.4-6.4.4-6,140.2-5.8l127,.2,6.3,3.4h0ZM199.12,287.16c17.7,6,33.3,6.1,50.4.6,8.9-2.9,11.3-3.2,21.5-3.2s12.8.4,19.5,2.6c19.4,6.3,32.5,6.3,52,0,11.8-3.9,26.6-3.9,39.1,0,5,1.5,11,3.1,13.5,3.5l4.4.8.3,26.2.2,26.2H96.02v-59h2.1c1.2,0,6.5,1.4,11.8,3.2,8.9,2.9,10.6,3.2,23.1,3.2,10.3,0,14.9-.4,19.5-1.8,17.9-5.5,18.8-5.6,29-5.2,7.3.3,12.1,1.1,17.6,2.9h0ZM414.82,363.76c3.5,1.9,7.4,4.8,8.8,6.4,3.4,4.1,7.4,12.1,7.4,15,0,2.3-.2,2.4-4.9,1.6-2.7-.4-8.3-1.7-12.3-2.8-20.8-5.6-35.8-5.5-59.8.7-8.9,2.2-12.6,2.6-24,2.6-12.2,0-14.7-.3-26-3.4-12-3.3-13.2-3.5-29-3.4-15.6.1-17.2.2-28.5,3.4-11,3.1-13.1,3.4-26,3.4s-15-.3-26-3.4c-11.4-3.2-12.9-3.3-28.5-3.4-15.8,0-17,.1-29,3.4-11.6,3.2-13.5,3.5-26.5,3.4-12.5,0-15.3-.4-25.9-3.2-6.5-1.8-13.1-3.2-14.7-3.2-2,0-2.9-.5-2.9-1.6,0-2.6,5.8-10.2,10.3-13.3,9.4-6.5-2.9-6,172.2-5.8l159,.2,6.3,3.4h0ZM83.02,400.16c10.7,2.9,12.7,3.1,28,3.1,15.7-.1,17.1-.2,28.5-3.4,11.2-3.2,13-3.4,26.5-3.4,12,0,15.8.4,22,2.3,19.8,5.8,41,6.6,57,2.1,22.5-6.3,36.1-6.5,56.5-.9,11.2,3,13,3.2,28.5,3.3,15.8,0,17-.1,29-3.4,11.4-3.1,13.7-3.4,26-3.4s15.2.4,26.5,3.2c7.2,1.7,14.7,3.4,16.8,3.7l3.7.6v51.9H64.02v-59.9l3.8.6c2,.3,8.9,1.9,15.2,3.6h0ZM480.02,475.86v4H16.02v-8h464v4Z" style="fill: #a6a6a6; opacity: .8;"/>
</svg>