<?xml version="1.0" encoding="UTF-8"?>
<svg id="_Слой_1" data-name="Слой 1" xmlns="http://www.w3.org/2000/svg" viewBox="0 0 512 512">
  <path d="M410.5,31.4c-1.6.7-13.8,8-27,16.1s-24.6,15-25.3,15.3c-.7.2-5-3.1-9.5-7.6-10.1-9.8-14.4-11.5-23.2-9.1-3.3.9-9.1,6.1-34.5,31.5l-30.6,30.4-2.9-3.1c-5.2-5.5-13.3-7.4-20.2-4.9-3.3,1.3-222.7,220.1-225,224.5-2.2,4.2-1.9,12.7.6,16.7,1.1,1.8,32.3,33.5,69.3,70.5,46.9,46.8,68.4,67.7,71,68.8,4.9,2,9.4,1.9,14.3-.4,2.8-1.3,38-36,114.2-112.2,95.4-95.6,110.3-110.9,111.2-114.4,1.6-5.8,1.4-7.6-1.4-13-1.3-2.7-2.3-5-2.2-5.1.1,0,23.6-14.4,52.2-31.9,28.6-17.4,53.1-32.7,54.3-33.9,3.8-3.4,5.2-7.1,5.2-13.3v-5.8l-34.6-56.5c-19-31.1-35.4-57.4-36.3-58.4-4.1-4.8-13.6-6.8-19.6-4.2ZM421.2,42.2c1.8,1.5,67.6,108.8,69.1,112.8.8,2.2.7,3.3-.4,4.9-.8,1.2-25.7,17-55.3,35.1l-54,33.1-2.3-2.4-2.4-2.3,7.8-7.5c6.4-6.1,13.4-10.9,39.7-26.9,17.5-10.7,32.4-20.4,33.2-21.5,1.2-1.8,1.1-2.9-.6-7.9-2.7-7.6-1.5-12.3,4.7-18.4,3.2-3.2,4.4-5.1,4.1-6.6-.4-2.2-32.7-55.6-35.6-58.9-1.7-2-3.2-1.9-10.7.4-6.2,1.8-10.9.5-16.5-4.7-2.6-2.4-5.6-4.4-6.6-4.4-1.1,0-6.4,2.7-11.8,6s-10.2,6-10.5,6c-.4,0-2.3-1.7-4.3-3.8l-3.7-3.7,24.7-15.2c14.3-8.8,25.8-15.2,27.3-15.2,1.4-.1,3.2.5,4.1,1.1ZM380.3,101.7c25.2,25.2,46.5,47,47.3,48.5.7,1.5,1.1,3.5.8,4.5-.4,1-14,15.2-30.3,31.5l-29.6,29.8-3.7-3.7-3.8-3.7,18.5-18.6c13.9-14,18.5-19.2,18.5-21.1,0-1.3-1.4-4.4-3-6.8-4.1-6.1-4.1-12.1,0-18.2,1.6-2.4,3-5.3,3-6.4,0-2.4-48.7-51.5-51-51.5-.9,0-3.1,1.1-5,2.5-7,5.2-15.1,5.1-21.3-.1-1.6-1.3-3.8-2.4-5-2.4-1.4,0-8.4,6.3-20.9,18.7l-18.8,18.7-3.7-3.7-3.8-3.7,30-30c25.9-25.9,30.4-30,33-30s8.9,5.9,48.8,45.7ZM397.8,82.5c5.6,3.9,13.3,5.8,20.1,5l5.7-.7,14.2,23.2,14.2,23.2-2,2.8c-4.6,6.5-6.2,11.8-5.8,19.8l.3,7.5-10.5,6.4-10.5,6.5,6.6-6.9c3.7-3.7,7.2-7.8,7.8-9,1.4-2.7,1.4-10.3.1-14-.6-1.5-13.7-15.4-29.1-30.9l-28.1-28.1,5.9-3.6c3.2-1.9,6.2-3.6,6.6-3.6.4-.1,2.5,1,4.5,2.4ZM331.8,103c3.5,0,7.4-.8,10.2-2.1l4.4-2,19.5,19.5,19.5,19.5-2,4.3c-2.6,5.7-2.6,15.9,0,21.6l2,4.3-16.2,16.2-16.2,16.2-34.5-34.5-34.5-34.5,16.1-16.1,16.1-16.1,4.9,1.8c2.8,1.1,7.4,1.9,10.7,1.9ZM315.3,177.9c53.3,53.2,67.7,68.2,67.7,70.1,0,3.7-219.3,223-223,223S21,335.6,21,332c0-1.9,23.2-25.7,108.3-110.8,59.5-59.6,109.5-109.3,111.2-110.3,1.7-1.1,3.9-1.6,5-1.3s32.5,31,69.8,68.3Z" style="fill: #fff;"/>
  <path d="M224.7,187c-10.2,2.6-20.5,10.6-25,19.7-4.3,8.4-4.7,13.3-4.7,51.3,0,31.7.2,36,1.6,37.5,1.5,1.4,5.9,1.6,41.3,1.3l39.6-.3,6-2.8c7.6-3.6,14.8-10.5,18.8-18.2,3.9-7.6,4.9-19.9,2.4-28.6-3.4-11.7-13.9-22.1-26.1-25.8-5.7-1.7-6.1-2.1-6.8-5.5-2.2-10.4-10.8-20.8-21.4-25.8-7.1-3.3-18.6-4.6-25.7-2.8ZM245,199.1c8.9,4,15.5,12.6,16.6,21.6.8,6.5,2.8,9.3,6.2,9.3,9.5,0,20.9,7.6,25.2,16.7,6.7,13.8-.1,30.8-14.9,37.7-4.3,2-6.5,2.1-38.3,2.4l-33.8.3v-33.4c0-37.8.2-39.3,7.3-47.3,7.9-9,21.2-12.1,31.7-7.3Z" style="fill: #fff;"/>
  <path d="M120.5,270c-1.1.5-12.1,10.9-24.4,23.3l-22.4,22.5-.5,5c-.3,4,0,5.8,1.6,8.4,1.2,1.8,21.4,22.5,44.9,46q46.3,46.1,54.3,43.8c5-1.4,48.5-45,49.5-49.8,1.6-7.5,1.8-7.2-44.3-53.5-24.1-24.1-44.9-44.5-46.4-45.3-3-1.5-9.2-1.8-12.3-.4ZM213,366.4c0,1.2-38.8,40.4-41.4,41.8-1.6.9-7.3-4.4-44.7-41.8-23.6-23.6-42.9-43.6-42.9-44.4,0-.9,9.5-11,21-22.5l21.1-20.9,43.4,43.4c23.9,23.9,43.5,43.9,43.5,44.4Z" style="fill: #fff;"/>
  <path d="M119.5,300.4c-1.1,1.7-1.3,3-.6,4.7.5,1.3,15.9,17.4,34.3,35.6,26.1,26.1,33.9,33.3,35.9,33.3,3.3,0,4.9-1.7,4.9-5.5,0-2.7-4.1-7.1-33.8-36.8-36.1-36-37.1-36.8-40.7-31.3Z" style="fill: #fff;"/>
  <path d="M116.2,328.2c-3.4,3.4-1.7,5.8,20.6,28.1,11.9,11.9,22.4,21.7,23.3,21.7,2.7,0,5.2-2.6,5.2-5.4,0-2.3-3.8-6.6-21.4-24.2-21.8-21.9-24.3-23.6-27.7-20.2Z" style="fill: #fff;"/>
</svg>