<?xml version="1.0" encoding="UTF-8"?>
<svg id="_Слой_1" data-name=" Слой 1" xmlns="http://www.w3.org/2000/svg" viewBox="0 0 471.11 511.83">
  <path d="M353.61,1.83c-25.4,7-58.9,17.7-59.8,19.1-2.1,3.4.2,6.3,11.9,14.9,6.3,4.7,11.9,9,12.4,9.5.5.6,1.6,5.4,2.5,10.6,1.6,9.2,1.6,9.8-.4,17.6-1.2,4.5-2.1,8.8-2.1,9.6,0,2.9,3,4.7,7.8,4.7h4.7l4.9,12.5c4,10.3,5.2,12.6,7.2,13.1,1.3.3,2.8.4,3.3.2.5-.1,9.4-8.2,19.8-17.8,29.1-27.1,36-36,38.4-49.3,2.2-12.4-2-25.7-11.2-34.8-5.3-5.4-10.5-8.3-18.6-10.4-7.4-1.9-12.2-1.8-20.8.5h0ZM377.71,12.93c10.7,5.1,16.7,14.7,16.8,26.9.1,6.3-.4,8.4-2.7,13-2.6,5.3-8.9,13.1-10.5,12.9-.4,0-5.6-5.8-11.7-13-12.5-14.7-10-13.5-30.8-14.4l-13.8-.7-8.1-6.1c-4.4-3.4-7.6-6.3-7.1-6.4.4-.2,12.1-3.7,25.8-7.8,28.1-8.4,32.8-8.9,42.1-4.4h0ZM346.31,48.83h6.6l10.4,12c5.6,6.6,10.4,12.4,10.6,12.8.4,1.3-27,26.4-27.8,25.5-.4-.4-2.2-4.6-4-9.3-3.8-10.2-5.3-12-9.5-12h-3.3l1.5-6.1c1.4-5.4,1.4-7,.1-15.1l-1.5-9,5.1.6c2.8.3,8.1.6,11.8.6h0Z" style="fill: #a6a6a6; opacity: .8;"/>
  <path d="M118.61,12.53c-12,4.3-22.8,13.4-27.7,23.4-1.4,3-6,16.7-10.2,30.4-6.4,21-7.4,25.2-6.3,26.8,1,1.6,41.9,24.1,48.6,26.8,3.2,1.3,7.1-1.2,7.1-4.6,0-3.9,1.4-3.7,6.9,1,2.9,2.5,6.1,4.5,7.1,4.5,2.6,0,4.9-3.4,9.4-13.8,3.7-8.4,4.2-9.1,7-9.4,4.8-.5,5.5-3,4-14.5-.7-5.4-1.1-10-.8-10.2.2-.3,4.1.1,8.6.8,7.6,1.2,8.2,1.1,10.1-.7,1.9-2,1.9-2.1-.8-15.8-1.7-8.9-3.7-16.2-5.7-20.2-4.3-9.1-12.7-17.3-22.4-21.9-7.4-3.6-8.5-3.8-18.9-4.1-8.6-.2-12.1.2-16,1.5h0ZM146.51,22.93c13.5,5,21.8,16,24.7,32.7.7,3.9,1,7.4.8,7.6s-8.3-.9-17.9-2.6c-9.6-1.6-18.4-2.7-19.6-2.4-2.8.7-3.3,2.2-8.5,27.6-2.3,11.3-4.5,20.8-4.8,21.2-.9,1-35.6-17.9-35.9-19.6-.6-2.9,12.9-45,16-49.8,9.5-15,28.2-21,45.2-14.7ZM151.61,70.43c1.6.4,2,1.4,2.1,5,.1,2.4.4,6.2.8,8.4.5,3,.3,4-.7,4-2.2,0-4.2,2.9-7.8,11.2-1.9,4.3-3.7,7.8-4.1,7.8-.5,0-2.5-1.6-4.6-3.5l-3.9-3.4,2.8-13.3c1.6-7.3,3.1-14.4,3.4-15.7.6-2.1.9-2.3,5.3-1.6,2.6.3,5.6.9,6.7,1.1Z" style="fill: #a6a6a6; opacity: .8;"/>
  <path d="M389.71,85.93c-6.6,1.6-15.5,7-20.6,12.6-11.3,12.4-14.4,28.6-8.6,45.1.8,2.1,2.2,8.4,3.2,14l1.7,10.2h4.9c4,0,4.8-.3,4.8-1.9,0-3.4-3.1-18.4-5.2-25.6-1.3-4.1-2.1-9.7-2.1-13.6,0-11.9,7.2-23.3,18.1-28.6,4.9-2.4,6.9-2.8,14.2-2.8,7.7.1,9.1.4,14.8,3.5,7.5,4,10.1,6.9,17.4,19.8,13.9,24.5,22.7,50.6,26.3,78.5,1,8,1.5,20.4,1.5,38.8,0,25-.1,26.9-1.7,26.9-2.7-.1-100.3-15.7-100.8-16.1-.6-.7,8.8-20.9,9.7-20.9.5,0,6.1,2.7,12.4,6,12.8,6.7,16.8,7.4,23.4,4,4.2-2.2,8.4-7.1,9.3-11,.3-1.4,3.5-23.7,7.1-49.6,6.4-45.5,6.5-47.2,5.1-52.1-5.4-18.1-31.5-18.5-37.5-.6-.5,1.5-2.7,16.2-4.9,32.7-2.2,16.4-4.2,30-4.4,30.3-.3.2-10.7-4.8-23.3-11.2-22.5-11.6-22.7-11.7-28.5-11.3-15.7,1.1-24.1,18.4-15.3,31.1,2.6,3.7,5.3,5.4,24.7,15.2,11.9,6,21.7,11.4,21.7,11.9,0,.4-2.6,6.7-5.7,13.8l-5.8,12.9-27.3,32.7c-15.1,18-28.5,34.8-29.8,37.5-1.4,2.6-3.2,7.5-4,11-3,11.6-2.2,15.5,14.7,64.7l15.3,44.5-3.4,16.6c-3.5,17.7-3.5,22.3-.2,26.9,4.6,6.2,12.3,8.8,15.4,5.3.9-1,7.9-12.8,15.8-26.2,11.8-20.3,14.1-24.9,13.8-27.5-.3-1.7-6-19.9-12.6-40.4-6.7-20.5-12.2-38.2-12.2-39.3,0-4.5,3.7-9.7,23-32,11.2-12.9,20.5-23.6,20.7-23.8.1-.2.5-.2.7,0s-.5,20.4-1.6,44.8c-1.9,41.3-1.9,44.9-.4,51,1.2,4.9,7,16.2,23.6,45.9l22,39.5-3.7,4.4c-7.9,9.3-7.8,9.1-7.8,15.8s2.3,11.6,5.8,12.3c.8.2,13.4-3.8,27.9-8.8,24-8.4,29.8-11.1,29.8-13.9,0-.4-11.8-21.6-26.1-47.1-20.9-37.1-26.2-47.4-26.6-51.1-.5-4.2,1.2-8.2,25.7-62.3l26.2-57.7-.4-35.7c-.5-39.8-1.5-48.7-8.4-72.7-7-24-21.8-54.6-31.4-64.5-10.4-10.7-26-15.3-40.4-11.9h0ZM409.61,120.23c4.1,1.8,5.5,4.2,5.5,9.8-.1,2.4-2.9,24.5-6.4,49.2-5.8,41.7-6.4,45-8.5,46.7-1.3,1.1-3.2,1.9-4.2,1.9-1.5,0-57.2-27.1-58.8-28.6-.3-.3,1.5-4.5,3.9-9.3l4.3-8.9,18,9c18.4,9.1,21.9,10.1,23.1,6,.3-.9,2.6-17.2,5.1-36.1,2.5-18.8,5-35.2,5.6-36.3.9-1.7,6-4.6,8.2-4.8.4,0,2.3.6,4.2,1.4h0ZM332.61,174.53c1.9.9,3.5,2,3.5,2.5,0,2-8.1,16.8-9.3,16.8-2,0-7-3.7-8.3-6.2-2.6-4.7-.9-10.8,3.7-13.4,3.3-1.8,6.2-1.7,10.4.3h0ZM457.81,273.13c.1.2-10.9,24.8-24.5,54.8l-24.7,54.4v15l23.3,41.6c12.7,22.9,23.2,41.8,23.2,42.1,0,.5-25.9-4.8-26.5-5.3-2.3-2.5-44.7-80.7-45.6-84.3-1-3.9-.8-14.7,1.1-57.7,2.5-57.3,2.6-56.3-2.9-55.7-2.5.3-10.2,8.8-47.3,51.8-10.9,12.6-13.6,18.4-12.5,26.4.3,2.3,5.6,19.5,11.7,38.3,6,18.7,11,34.5,11,35.1,0,1.3-19.9,3.7-20.9,2.6-.4-.5-7.3-19.8-15.2-42.9-14.1-41.1-14.4-42.2-14.4-50.5,0-7.1.4-9.4,2.6-14,1.7-3.5,12.4-17.1,29.2-37.1l26.5-31.6,52.8,8.4c29,4.6,52.9,8.5,53.1,8.6h0ZM340.91,441.73c-1.1,2.9-20.4,35.1-21,35.1-2,0-1.6-5.7,1.2-19,1.7-7.9,3.2-14.5,3.3-14.6.2-.2,12.4-2,15.5-2.3.8,0,1.2.3,1,.8ZM434.81,487.33c3.7.9,7.9,1.8,9.3,2.1,1.9.5-.7,1.7-11.8,5.6-7.9,2.7-14.6,4.7-14.9,4.5-.8-.9,1.8-5.1,6-9.5,2.3-2.3,4.2-4.2,4.3-4.2.2,0,3.3.7,7.1,1.5Z" style="fill: #a6a6a6; opacity: .8;"/>
  <path d="M220.11,98.03c-.5,1.3-1.1,3.5-1.4,4.9-.9,4.3-3.9,7-9.1,8.4-3.9.9-5.2,1.8-5.9,3.8-1.2,3.4,1.5,6.7,5.5,6.7s8.7,4.4,9.5,8.8c.4,2,1.3,4.5,2.2,5.4,3.2,3.8,7.4,1.1,8.6-5.4.8-4.4,5.5-8.8,9.5-8.8s6.7-3.3,5.5-6.7c-.7-2-2-2.9-5.9-3.8-5.2-1.4-8.2-4.1-9.1-8.4-1.2-5.7-2.2-7.1-5.4-7.1-2.2,0-3.3.6-4,2.2h0ZM225.71,115.93c1,1.7-1.3,3.6-2.7,2.2-1.2-1.2-.4-3.3,1.1-3.3.5,0,1.2.5,1.6,1.1h0Z" style="fill: #a6a6a6; opacity: .8;"/>
  <path d="M88.11,118.33c-11.6,3.3-20.4,10.9-25.7,22.2-3.2,7-4.1,7.9-30.7,31.7-15,13.5-28.3,25.7-29.5,27.2-3.2,4.1-2.9,11.5.7,15.3,1.5,1.7,15.8,10.3,31.7,19.2,16,8.8,29.1,16.2,29.2,16.3.2.2.9,10.4,1.7,22.7l1.4,22.4,19.6,44.8c14.2,32.4,19.6,45.8,19.6,48.6,0,2.2-4.6,16.9-11.6,36.7-31.4,89.5-28.8,81.2-27,83.9l1.6,2.5h73l1.6-2.5c1.3-2,1.5-3.7,1-7.7-1.2-8.9-5-14.2-14.4-20.4-5-3.2-7.5-7.3-7.4-12.3.1-2,3.5-13.5,7.7-25.6,18.4-52.8,18.5-53.1,18.5-61.4,0-4.3-1.1-17.8-2.5-30.1-1.3-12.3-2.4-22.5-2.2-22.6.7-.6,35.4,39.9,36.5,42.6,1.3,3.2,0,21.3-5.8,80.9-.5,5.2-.6,10-.2,10.7,1.3,2.2,41.6,38.6,43.9,39.7,4.7,2.1,11.2-7.5,10-14.9-.3-1.9-3.6-8-7.2-13.6l-6.7-10.2.7-9c.3-5,2-26.2,3.6-47.1,1.7-20.9,2.9-42.1,2.7-47-.5-11.6-1.9-14.7-19.7-42.4-7.6-11.9-15.9-24.9-18.5-28.9l-4.6-7.3-3.1,1.8c-1.7,1-3.5,2.3-4,3-.7.8,4.8,10.2,17.7,30.4,10.3,16.2,19.6,31.5,20.6,34.1,1.3,3.4,1.8,7.4,1.7,13.6,0,10.9-5.2,75.9-6.1,76.8-.7.6-15-3.8-17.6-5.4-1-.7-.7-6.8,1.4-31.6,2.7-29.5,2.7-30.8,1.1-36-1.5-4.7-4.7-8.8-22.3-28.8-25.8-29.2-28.3-31.8-30.9-31.8-5.4,0-5.5,1.3-1.5,38,4.5,41.2,5.1,35.8-9,76.1-6.6,18.8-12.1,34.4-12.3,34.6-.5.4-18.9-1.6-19.5-2.2-.2-.2,4.4-14.2,10.3-31,10-28.6,10.7-31.1,10.3-36.8-.3-5.4-2.8-11.6-18.7-48-10.2-23.3-18-42.2-17.5-42.6.5-.5,18.7-6.4,40.4-13.1,21.7-6.8,41-12.8,42.9-13.3,4.4-1.4,5.1-3.7,5.1-16.3v-10.5l3.1,2.3c6.1,4.5,8,3.8,37.7-14,14.9-9,28.5-17.7,30.1-19.4,3.9-4,5.4-8.7,4.9-15.4-.8-9.4-7.1-16-17-17.8-5.3-1-9.7.9-28,12l-16.2,9.8-10.3-11c-9.1-9.6-11-12.3-16.3-22.9-6.8-13.7-13.3-22.7-23.4-32.6-7.6-7.6-14.8-12.7-21.4-15.2-6.2-2.5-16.6-3-23.2-1.2h0ZM110.51,130.13c6.4,2.9,19.4,15,26.6,24.6,10.9,14.5,18.2,33.9,20,52.9,1,10.9,1.4,54.2.5,54.2-.3,0-18.6,5.6-40.7,12.5s-40.3,12.4-40.4,12.2c-.1-.1-.6-6.9-1.1-15-.8-14.6-.8-14.8,1.2-14.1,1.1.4,4.7.9,8,1.1,7.9.6,13.8-2.4,17.8-8.9,4.7-7.6,3.3-19.4-2.9-24.9-1.1-.9-10.6-6.5-21.2-12.5-18.3-10.1-19.2-10.8-17.5-12.4,1-.9,9.5-8.5,19-16.9,19.4-17.2,20.9-19.5,20.1-29.6-.4-4.2-1.2-6.4-3.5-9.3-3.9-4.9-9.8-8.2-14.7-8.2-3.8,0-3.9-.1-2.2-1.9,2-2.2,7.5-5,12.1-6.2,4.9-1.3,13.1-.2,18.9,2.4h0ZM87.21,148.73c3.4,3.5,3.9,9.3,1.1,12.7-.9,1.2-10.7,10.1-21.7,19.9-11,9.7-20.4,18.4-20.9,19.2-1.7,3,1.2,5.9,11.5,11.6,5.7,3.1,11,6.1,11.8,6.6,1.2.8.3,2.3-4.4,7.8-3.2,3.7-6.2,7.2-6.6,7.6-.4.5-11.3-5.1-24.3-12.4-16.8-9.4-23.6-13.7-23.6-15,0-.9,3.7-5,8.3-9.1,33.2-29.9,55.5-49.6,57.2-50.6,3.7-2.1,8.4-1.4,11.6,1.7ZM231.61,192.43c2.5,2.7,3.3,8.1,1.9,11.8-.6,1.6-7.2,6.1-7.9,5.4-.2-.2-2.4-3.9-4.9-8.3l-4.6-8,2.1-1.8c1.3-1,3.8-1.7,6.6-1.7,3.5,0,4.9.6,6.8,2.6h0ZM182.81,212.43c.9-.4,6.4-3.6,12.3-7.1,6-3.6,11.2-6.5,11.7-6.5.9,0,1.5.8,6.6,10.1l3.7,6.6-19.5,11.9-19.6,11.8-4.8-4.8-4.8-4.7-.7-13.2c-.4-7.3-1-14.3-1.3-15.7-.5-2,1-1,7.1,4.9,5.3,5.1,8.1,7.1,9.3,6.7ZM86.61,228.43c3.2,2,6.5,4.3,7.2,5.2,2.2,2.9,1.6,8.7-1.3,12.1-3.8,4.5-8.3,4.2-17.9-1.1-4.1-2.3-7.5-4.5-7.5-4.9,0-1,12-14.9,12.8-14.9.4,0,3.4,1.6,6.7,3.6h0ZM205.11,461.53c.5,7.5.8,8.5,5.1,14.9,2.5,3.8,5.4,8.2,6.4,9.9l1.9,3-3-2.6c-1.6-1.4-8.7-7.9-15.9-14.4-7.1-6.5-13.4-12.1-13.8-12.5-.5-.4-.5-3.4-.2-6.7l.7-6,9.2,3.2,9.1,3.3.5,7.9h0ZM111.21,467.43c.4.2.9,2.2,1.3,4.5,1.3,8,5.3,13.4,14.8,19.9,3.5,2.3,6.8,6.7,6.8,8.9,0,.8-8.2,1.1-27.5,1.1-15.1,0-27.5-.2-27.5-.4,0-.3,2.7-8.3,6-17.8s6-17.4,6-17.6c0-.5,19.2.8,20.1,1.4Z" style="fill: #a6a6a6; opacity: .8;"/>
  <path d="M301.11,240.03c-.5,1.3-1.1,3.6-1.5,5.1-.8,4-4.8,7.3-9.5,8.1-7.8,1.2-7.8,9,0,10.2,4.7.8,8.7,4.1,9.5,8.1,1.3,5.9,2.3,7.3,5.4,7.3,3.4,0,4.6-1.3,5.5-6,.8-4.5,4.1-7.8,9-9.1,5.2-1.4,6.6-2.6,6.6-5.4s-1.4-4-6.6-5.4c-4.9-1.3-8.2-4.6-9-9.1-.9-4.7-2.1-6-5.5-6-2.1,0-3.2.6-3.9,2.2h0ZM306.61,257.73c.7,1.2-1.2,2.4-2.5,1.6-1.1-.7-.4-2.5,1-2.5.5,0,1.1.4,1.5.9Z" style="fill: #a6a6a6; opacity: .8;"/>
  <path d="M64.81,337.63c-1,1-1.7,3-1.7,4.3,0,4.6-5.8,9.9-10.8,9.9-2,0-5.2,2.9-5.2,4.8,0,2.1,3.9,5.2,6.6,5.2,3.5,0,9.4,5.9,9.4,9.4,0,1.4.9,3.5,2,4.6,3.8,3.8,6.4,2.3,8.5-4.6,1.8-6.1,3.7-8,9.4-9.3,4.7-1,6.1-2.3,6.1-5.7,0-2.7-1.6-4-6.1-4.8-4.7-.8-8.7-4.8-9.5-9.5-.4-2-1.1-4.2-1.7-4.9-1.4-1.8-5.1-1.5-7,.6ZM69.61,355.83c1.1,1.7-.5,3.2-2.1,1.9-.7-.6-1.1-1.5-.8-2,.7-1.2,2.1-1.1,2.9.1Z" style="fill: #a6a6a6; opacity: .8;"/>
</svg>