<?xml version="1.0" encoding="UTF-8"?>
<svg id="_Слой_1" data-name="Слой 1" xmlns="http://www.w3.org/2000/svg" viewBox="0 0 512 512">
  <path d="M244.5,30.5c-1.9,2-3.5,4-3.5,4.5,0,.6-1.8-.3-4.1-1.9-2.2-1.7-6-3.3-8.5-3.7-8.4-1.2-13.3,2.7-17.8,14.3-3.4,8.7-6.1,11.9-17.1,20.1-14.1,10.6-20.3,21.7-21.3,38.1l-.5,8.4-8.7,11.6c-29.9,39.7-40,70.9-40,124.6,0,38.9-2.6,60.9-9,78.8l-3,8.2-40.8,17.4c-22.4,9.6-41.3,17.9-42,18.4-2.2,1.7-1.5,12,1.4,19.2,10.8,27,61.1,78,91.4,92.8,7.5,3.6,19.7,5,21.6,2.5.6-.7,8.9-19.6,18.5-42l17.3-40.7,6.8-2.5c18.7-7,30.7-8.5,75.8-9.6,42.5-1,51.9-2.2,72-8.9,19.9-6.7,36.7-15.8,57.3-31.3l11.8-8.8h6.2c10.8,0,21.9-4,30.8-11.2,2.3-1.8,6.8-6.9,10-11.4,6.9-9.6,10.4-12.5,20-16.4,3.9-1.6,8-3.7,9.1-4.7,5.8-5.2,6.2-13.5.9-20.9-1.7-2.4-2.6-4.4-2.1-4.4s2.5-1.6,4.5-3.5c3.1-3.1,3.5-4.2,3.5-8.6,0-2.7-.6-6.5-1.4-8.4-3.2-7.5-15.8-16.6-29.2-20.9-4.8-1.6-5.1-1.9-6.7-7-1-3-3-8-4.7-11.2-2.1-4.2-2.6-6.2-1.9-7.5,1.5-2.9,1-12.1-1-16.5-1.1-2.3-3.5-6-5.5-8.1l-3.6-4,3.9-1.8c17-7.6,13.8-28.1-6.4-42.1-3-2-5.5-3.8-5.5-3.9,0-.2.6-2,1.4-4.1,6.7-19.1-2.1-35.9-20-38-4.4-.6-12.7.8-18.4,3-1,.4-2.4-.8-4.3-3.9-5.9-9.2-18.3-17.5-26.4-17.5-6.3,0-14,6.2-16.6,13.4-.6,1.6-1.2,1.4-5.3-2.4-2.5-2.3-6.4-5-8.7-6.1-4.5-2-13.6-2.5-16.6-1-1.3.7-3.3.2-7.5-1.9-3.2-1.7-8.2-3.7-11.2-4.7-5.1-1.6-5.4-1.9-7-6.7-4.3-13.4-13.4-26-20.9-29.2-1.9-.8-5.7-1.4-8.4-1.4-4.4,0-5.5.4-8.6,3.5ZM261,42c7.9,7.9,13.9,24.5,14.3,39.2.1,4.2-.1,7.8-.3,8.1-.3.2-4.2.1-8.7-.1l-8.3-.4v-7.2c0-8.4-1.8-16.6-6.1-27.7q-3.1-8.1-1.4-12c2.4-5.2,5.2-5.2,10.5.1ZM228.8,41.4c13.5,7.1,22.3,39,16.2,58.7-6.7,21.7-30.5,41.5-44.3,37-4.9-1.7-12.1-9.8-14.8-16.9-3.3-8.6-3.6-19.2-.9-27.1,3.1-9.2,7.2-14.3,17.7-22.2,10-7.4,14.2-12.7,17.9-22.1,2.2-5.6,4-8.8,5.1-8.8.2,0,1.6.6,3.1,1.4ZM291.6,77.1q7.6,3.2,4.7,10.2c-1.4,3.4-2.8,6.5-3.2,6.9s-2.1.3-3.8-.4l-3.2-1.2.2-8.8c.1-4.8.3-8.8.4-8.8s2.3.9,4.9,2.1ZM363.1,81.5c2,1.3,5.3,4.3,7.2,6.7,3.6,4.3,11.1,19,12.2,23.8l.6,2.5h-29.3l-2.2-6.5c-1.3-3.6-3.1-8-4-9.7-.9-1.8-1.6-4-1.6-5,0-2.6,5.6-14,7.2-14.6,2.1-.9,6,.2,9.9,2.8ZM320.6,82.6c8.3,4,17.8,19.1,22.7,36.4,3.1,10.5,4.9,24.8,4.1,31.7-.6,5-.8,5.1-4.3,5.8-11.7,2.2-29.5,12.7-41.2,24.4s-18.1,22.4-22.5,38.9c-.6,2-7.4-2-12.1-7.1-8.6-9.3-14.4-24.8-14.6-38.6-.1-19.1,8.1-34.9,24.3-46.6,16.9-12.1,23.5-19.9,28.9-34,5.1-13.1,7-14.5,14.7-10.9ZM406.7,97.1c7.7,2.9,10.4,9.8,7.8,19.6-1.1,3.9-2.2,6.2-2.9,5.9-.6-.3-4.4-1.5-8.3-2.8l-7.3-2.3-3-8.9c-1.6-4.9-2.8-9.1-2.6-9.4,1-.9,8.3-3.1,10.8-3.2,1.5,0,3.9.5,5.5,1.1ZM277.5,102c4.3,1.1,8.1,2.2,8.3,2.5.9.9-4,5.5-10.8,10.3-18.9,13.4-27.1,24.5-31.6,42.8-.9,3.8-1.8,7-1.8,7.1-.6.9-14.6-3.1-18.6-5.3-4.6-2.5-12-8.9-12-10.4,0-.3,2.4-1.4,5.4-2.3,10.4-3.3,24.3-14.8,31.4-26.1,2.6-4.1,6.9-13.5,8.6-18.9.8-2.4,11-2.3,21.1.3ZM185.8,140.2c2.5,2.7,6.5,5.5,8.9,6.4,3.3,1.3,4.5,2.4,5.3,5,3.5,10.6,23.6,23.4,36.7,23.4,1.8,0,3.3.4,3.3,1,0,.5-.9,1-2,1-3.2,0-14.8,4.7-21.2,8.6-16,9.7-25.2,25.2-20.5,34.4,2,3.9,7,6.7,13.6,7.4,7.8.9,11.6,2.5,17.7,7.6,10.3,8.7,23.7,13.1,34,11.3l4.9-.9-.3,9c-.5,13,1.3,17.6,13.5,33.6,3,3.9,4.2,7.7,5.9,18.4.3,2.6,1.7,5.1,3.9,7.3,2.8,2.8,4,3.3,8.2,3.3,7.1,0,14-3.8,21.3-11.8,6.6-7.1,14.6-21.6,15.6-28.3.8-5,2.4-6.1,2.4-1.6s2.6,13.2,6.3,20c3.5,6.7,12.3,15.2,16.7,16.2,2.5.6,3.6,1.7,5.4,5.8,2.9,6.3,9.2,12.6,16.7,16.5l5.7,3-8.2,6c-26.8,19.7-54.1,30.8-84.8,34.1-5.4.6-18.2,1.1-28.5,1.1-23.8,0-49.2,1.5-60.8,3.5-4.9.9-13.9,3.2-19.8,5.2l-10.9,3.6-26.5-26.6-26.6-26.5,3.6-10.9c6.4-19.1,8.7-40.4,8.7-79.8,0-28.3,2-43.4,8.2-62.5,5.6-17.4,15.7-36.5,27.8-52.8l5.2-7,3,5.7c1.6,3.1,5,7.7,7.6,10.3ZM393.5,128.5c11.7,3,26.2,9.8,32.3,15,5,4.4,9.5,11.6,9,14.7-.4,2.6-5.5,6.3-10.9,8-3.5,1-4.5.8-10.6-2-14.9-6.7-30-10.3-44.9-10.5l-10-.2v-7c.1-3.9-.2-10-.7-13.7l-.7-6.7,2.7-.5c6.7-1.1,24,.3,33.8,2.9ZM375.8,165c23.8,3,47.4,14.6,53.2,26.1,4.1,8,2.8,9.8-10.5,15-14,5.4-21.8,12-33.9,28.8-17.6,24.4-46.5,31.3-73.6,17.6-18.1-9.1-24.2-21.4-18.8-37.1,7-20.2,27.9-39.7,50-46.8,13.2-4.3,21.3-5.1,33.6-3.6ZM249.3,205.8c5.5,11,14.2,20.8,20.8,23.6l3.1,1.3-5.4,2.3c-11.1,4.8-22.4,2.4-33.7-7.3-6.1-5.3-12.8-8.1-21.4-9.2-3.6-.4-6-1.2-6.4-2.1-.9-2.3,4.4-10,9.9-14.4,6.2-4.9,17.2-10.7,22.6-11.8l3.7-.8,2.1,6.5c1.1,3.6,3.2,9,4.7,11.9ZM434.6,219.7c1.3,2.9,2.4,5.5,2.4,5.6,0,.2-4,.3-8.9.4q-8.9.1-9.7-2.5c-.4-1.5-.8-3.1-.8-3.6-.1-1.2,12.6-6.5,13.8-5.8.4.2,1.9,2.9,3.2,5.9ZM409.6,232.7c1.1,4,1.9,10.1,1.9,14.7v7.9l-4,1.2c-17.5,5.1-37.2,23.5-42.2,39.1-.9,3-2,5.4-2.3,5.4-1.5,0-7.9-7.4-10.4-12-2.2-4-6.2-18-5.3-18.6.1,0,3.3-.9,7.1-1.8,17.8-4.4,30.3-13.4,41.6-30.1,3.9-5.7,9.9-12.5,11-12.5.4,0,1.6,3,2.6,6.7ZM446.6,239c9.4,2.4,18.5,7.1,23.4,12,5.3,5.3,5.3,8.1.1,10.5-3.9,1.7-4,1.7-10.6-.9-10.3-4.2-21.1-6.6-29.2-6.6h-7.3v-6.3c0-3.4-.3-7.2-.6-8.4-.5-1.8-.1-2.2,2.3-2.6,4.3-.7,14,.3,21.9,2.3ZM283.9,243.8c4.4,8.6,20.7,19.7,34.6,23.7,3.3,1,6.1,1.8,6.2,2,.8.6-3.3,11.9-6.3,17.1-6,10.9-16.6,20.7-20.6,19.1-1-.3-1.7-2.6-2.1-6.8-.9-7.6-4-14.8-9.6-21.4-7.2-8.6-8.6-11.9-8.6-21.5,0-5.9.5-9.6,1.7-12.3.9-2,1.9-3.7,2.2-3.7s1.4,1.7,2.5,3.8ZM443.3,267.1c13.2,3.1,23.8,9.5,27.4,16.2,1.9,3.7.8,5-6.5,7.7-9.8,3.6-15.5,8.2-23.1,18.3-7.3,9.7-11.1,13-19.6,16.9-7.1,3.2-21.5,3.2-29.7,0-7.4-3-15.4-10.1-16.9-15.2-4-13.1,13.6-35.4,34-43.1,10.8-4,20.2-4.3,34.4-.8ZM119.9,351.4l6.3,6.4-22.8,13.7c-12.6,7.5-23.2,14.2-23.6,14.9-1.9,2.9,1.1,8.6,4.5,8.6.8,0,11.7-6.1,24.3-13.6,12.6-7.4,23.6-14,24.5-14.4,1.2-.7,3,.5,7.3,4.9l5.6,5.7-14.5,24.4c-8,13.4-14.5,24.9-14.5,25.7,0,3.4,5.7,6.4,8.6,4.5.7-.4,7.4-11,14.9-23.6l13.8-22.8,6.4,6.4,6.5,6.5-15.7,36.9c-8.6,20.3-16.1,37.3-16.6,37.9-2.2,2.2-17.3-6-31.9-17.4-17.9-13.8-43.9-41.2-54.7-57.4-5.8-8.7-10.5-18.2-10.1-20.3.2-1.2,12-6.7,37.3-17.5,20.4-8.7,37.2-15.8,37.5-15.9.3,0,3.4,2.9,6.9,6.4Z" style="fill: #fff;"/>
  <path d="M177.2,231.2c-7.7,11.2-15,30.4-17.2,45-1.7,11.7-1.8,28.1-.1,30.1,1.7,2.1,6.4,2.2,8.1.2.7-.9,1.4-5.7,1.6-12.2.7-20,5.2-36.6,14-51.9,2.5-4.3,4.6-8.9,4.6-10.1.1-3.3-2-5.3-5.3-5.3-2.2,0-3.4.9-5.7,4.2Z" style="fill: #fff;"/>
  <path d="M196.8,306.8c-26,25.9-29.8,30.1-29.8,32.8,0,1.6.5,3.5,1.2,4.2s2.6,1.2,4.2,1.2c2.7,0,6.9-3.8,32.8-29.8,24-24,29.8-30.3,29.8-32.4,0-2.9-3.2-5.8-6.4-5.8-1.3,0-12.8,10.8-31.8,29.8Z" style="fill: #fff;"/>
  <path d="M274.9,325.6c-21.3,11.9-34.6,15.8-57.3,16.9-6,.3-11.5,1-12.3,1.6-1.7,1.4-1.7,6.3,0,7.7,2,1.6,8.5,2,20.2,1.1,20.7-1.5,40.6-8,55.3-18.1,3.3-2.3,4.2-3.5,4.2-5.7,0-5.3-4.3-6.8-10.1-3.5Z" style="fill: #fff;"/>
</svg>