<?xml version="1.0" encoding="UTF-8"?>
<svg id="_Слой_1" data-name="Слой 1" xmlns="http://www.w3.org/2000/svg" viewBox="0 0 512 512">
  <path d="M370,42.7c-29.2,4.4-59.3,24-85.4,55.8-15.4,18.7-28,37.8-45.6,69.3-4.1,7.3-7.9,13.1-8.5,12.9-.5-.2-1-.8-1-1.3s.4-7.2.8-14.9c.8-16.1-.2-26.9-3.8-41-3.8-14.6-8.1-22.9-16-31.3-17-18-40.7-21.7-63.9-10-35.2,17.7-56.6,53.1-66.2,109.3-2.2,12.6-2.5,48.7-.6,62,7.8,54.1,30.5,112.5,73.7,189,11.9,21.2,14.6,25.1,18.2,26.8,3.8,1.7,7.7-1.1,21.1-14.7,28.2-29,159.8-175.7,175.4-195.7,15.4-19.8,31.7-45.7,44.8-71.4,14.5-28.4,20.4-51.1,20.4-78.5.1-12.1-.3-15.8-2.2-22.3-5.3-18.7-15.9-32.5-29.7-39.2-9.4-4.5-21.4-6.4-31.5-4.8ZM385,57c13.1,2.5,21.8,9.5,28.1,22.5,5.3,11.1,7.3,22.1,6.5,35.3-1.3,21.3-6.7,40.4-18.1,63.7-13.8,28.3-33.4,58.4-53.6,82.7-14.2,17-161.3,180.2-168.8,187.2-3,2.9-3.1,2.9-4.6,1-2.5-3.1-8.8-13.9-18-31-45.7-83.8-66.6-149.3-64.1-201.3,1.5-31.7,7.5-56.3,19.3-79.3,14.9-28.9,39.6-48.1,61.6-48,18.5.1,31.1,11.1,38.6,33.7,4.5,13.6,5.6,23.2,4.1,37.2-1.6,15.9-5.6,45.3-8,59-2.4,13.5-2.5,15.5-.5,19.3,1.9,3.7,5.7,4.8,9,2.6,1.6-1.1,7.5-11.9,18.4-33.8,17.8-35.9,26.2-51,38.8-70.3,12.9-19.5,22.5-31.7,35.3-44.5s25.2-21.9,40.5-29.1c14.8-7.1,24.5-9,35.5-6.9Z" style="fill: #8b0000;"/>
</svg>