<?xml version="1.0" encoding="UTF-8"?>
<svg id="_Слой_1" data-name="Слой 1" xmlns="http://www.w3.org/2000/svg" viewBox="0 0 512 512">
  <path d="M117,66.1c-23.7,2-38.7,7.6-54.3,20.4-5,4-13.4,13.3-15.5,17.1-.6,1.1-2.8.6-11.6-2.1-18.5-5.9-20.7-5.1-21.8,8.1-.8,9.9.6,47.1,2.2,58.5.6,4.1,1.7,11.2,2.6,15.8,1.5,8,1.4,8.5-.3,9.5-4.4,2.4-12.5,11.3-15,16.5-3.8,8-4.5,22-1.3,30.4,4.2,11.2,13.3,19.7,25.1,23.3l5.5,1.7,2.2,6.9c2.7,8.8,8.2,19.7,13.7,27.3,4.9,6.9,16.1,18.2,22,22.2l4,2.7-12.8,1.2c-11.5,1-13.6,1.5-20.2,4.8-12.2,6-20.6,15.8-24.5,28.5-1.8,5.8-2,9.4-2,44.6,0,46.6-1.2,43,14,43,9.5,0,10.3-.2,12.1-2.4,4.5-5.5.8-13.1-6.5-13.1h-3.7l.3-33.2c.3-32.5.4-33.4,2.6-38,2.7-5.5,9.1-12.2,14.2-14.8,5.2-2.6,13.9-4,25.6-4h10.1l.6,3.4c1,6,6,14.8,11.9,20.8,17.5,18,46.9,17.9,64.1-.1,5.8-6.1,9.7-12.8,11.7-20l1.2-4.4,13.7.5c12,.5,14.5.8,19.3,3,7.5,3.5,13.2,8.8,16.5,15.6l2.8,5.7.3,32.7.3,32.8H66.1l-2,2.6c-3.4,4.3-2.1,10.2,2.6,12.3,3.4,1.6,167.2,1.6,170.6,0,1.4-.6,3-2.2,3.6-3.6.7-1.6,1.1-13.8,1.1-37.2,0-30.7-.6-40.9-2.5-47.2-.5-1.4.9-1.7,10.2-2.2,6-.3,12.9-1.2,15.4-2l4.7-1.4-2.5,5.3c-3.8,8.4-4.4,15.6-4.1,51.2l.3,33.4,2.8,2.4,2.8,2.4h99.4c70.7,0,100.1-.3,101.8-1.1,4.5-2,4.7-4,4.7-40.2s-.7-42.3-4.5-49.7c-.9-1.7-1.4-3-1.3-3,.2,0,3.5.7,7.3,1.5,3.9.8,12.2,1.5,18.6,1.5,10.3,0,11.9-.2,14.3-2.1l2.6-2v-29.9c0-27.4-.2-30.3-2.1-36.6-3.7-12.3-11.8-23.3-21.8-29.9-3.9-2.6-5.9-4.5-5.5-5.4.2-.8,1-4.4,1.6-8,1.4-8.2,0-15.4-4.2-22.8l-3-5.2-.3-22.3c-.3-20.6-.5-22.9-2.9-30.7-1.4-4.7-3.4-9.1-4.4-9.8-3-2.2-8.2-1.6-11.1,1.3s-2.8,4.1.3,14.4c1.1,3.5,1.8,10.7,2.1,20.2l.5,14.8h-21.8c-12.1,0-24.8-.5-28.3-1-18-2.6-32.2-17.1-33.8-34.6-.8-8.3-3-11.4-8.2-11.4-4.5,0-8.1,3.3-8.1,7.3,0,13.9-9.4,28.9-22,35-7.9,3.8-15.6,4.7-40.9,4.7h-22.4l.6-13.3c.7-14.6,2.8-24.6,7.5-35,11.7-25.7,36.1-44.2,64.2-48.7,11.1-1.7,12.7-1.5,13.4,2,.4,2.3,1.5,3.5,4.1,4.6,4.6,1.9,8.3.3,10.5-4.3,1.7-3.7,3.3-4,14-2.2,16.8,2.6,32.5,10.6,45.2,22.7,6.8,6.6,8.4,7.6,11.5,7.6,4.2,0,8.3-4,8.3-8,0-3-8.4-12.2-17.3-19.1-16.8-13-44.4-21.9-61.6-19.9-3.1.4-6.7.6-8.1.6-21.6-1.2-34.6,1.2-51.5,9.5-26.8,13.1-45.5,36-53.1,65-2.4,8.9-2.7,12.2-3,30.8-.3,17.3-.6,21.3-2,23.7l-1.7,2.8-2.2-6.3c-2.2-6.6-6.4-13.5-10.1-16.4-2-1.6-2.2-2.6-2.7-23.6-.4-19.3-.8-23.2-3-31.7-4.9-18.7-13.6-33.8-27.1-47.4-24.3-24.2-52.3-32.9-94.6-29.3ZM159.5,83.9c25.6,6.3,47.7,24.6,58.6,48.6,5.3,11.8,7,20.5,7.6,39l.6,17-55.4-.2c-35.4-.2-57.6-.6-61.4-1.4-18.4-3.4-33.3-17.6-38.9-37.1-1.8-6.2-3.5-7.8-8.5-7.8-3.9,0-7.7,3.3-13.8,12.2-5.7,8.3-9.8,16.1-12.3,23.2l-1.6,4.9-1.2-7.9c-2.3-15-3.2-26.9-3.2-42.2,0-8.3.4-15.2.8-15.2.5,0,4.2,1.1,8.2,2.5,11.5,3.9,15.3,3.6,18.3-1.4,9.8-16.6,26.1-29,44.3-33.6,15.1-3.8,43.6-4.1,57.9-.6ZM74.6,186.9c6.4,5.9,15.1,10.9,24.4,14.3,6.5,2.3,6.9,2.3,66,2.8l59.5.5,4.6,2.7c7.8,4.6,12.8,14.5,11.3,22.6-2,11-9.4,17.8-21.1,19.2-7.8,1-9.7,2.6-10.8,9.3-1.3,7.7-6.6,20.7-11.7,28.4-16.3,25-42.6,38.4-72.7,37.1-18.5-.8-34.7-7.2-49.3-19.5-12.3-10.4-22.7-27.3-26.3-43.3-2.2-9.5-3.8-11.2-11.4-12.1s-14.2-4.7-17.8-10.1c-3.8-5.6-4.4-15.7-1.5-21.4,4.2-8.1,12.6-13.4,21.2-13.4,4.8,0,7.4-2.9,9-10,1.7-7.3,5.5-17.5,8.6-22.8l2.5-4.2,5,7.4c2.7,4.1,7.4,9.7,10.5,12.5ZM371.1,194.6c2.3,4.3,13.3,13.8,19.6,16.9,10.2,5,14.1,5.6,40.9,6.3l25.1.7,3.7,2.9c9.4,7.1,10.9,18,3.8,27.5-2.8,3.8-9.2,7-13.9,7.1-4,0-8,1.8-8.8,3.9-.4.9-1.5,4.8-2.5,8.7-4.5,17.6-15.8,33.1-31,42.9-12.7,8.1-24,11.5-39.1,11.5-33.5,0-62.8-22.9-70.3-55.1-2.2-9-4.8-11.9-10.7-11.9-9.7,0-18.9-9.4-18.9-19.2.1-7.6,7.6-17.2,14.2-18.2,1.8-.3,13.4-.7,25.8-1,23.8-.4,28.2-1.2,38.1-6.1,6.5-3.3,14.3-9.8,18.1-15,1.8-2.4,3.6-4.4,3.9-4.5.3,0,1.2,1.2,2,2.6ZM255.4,250c.4,1.1-.5,2.1-3.1,3.5-5.7,3-16.4,14.3-20,21-5.8,11.2-6.5,15-7.2,39.2l-.6,22.3-4.5-3c-6.2-4.2-15.7-6.8-27.7-7.7l-10.2-.8,7.7-6.1c13.9-10.9,25.8-28.1,31-44.6l2.7-8.7,4.4-1.1c9.5-2.4,18.1-8.7,22.9-16.9l2.6-4.5.7,2.9c.4,1.7.9,3.7,1.3,4.5ZM270.3,267.4c2.3,1.3,6,2.9,8.3,3.5,3.8,1,4.1,1.4,5.8,6.8,1,3.2,2.7,7.5,3.7,9.5,2.9,5.6,2.6,18.5-.5,26.1-3.4,8.2-7.2,13.3-13.3,17.9-7.3,5.6-14.2,7.9-24.6,8.6l-8.9.5.4-23.4c.5-26.4,1.2-29.7,8.6-39.4,3.4-4.5,13.3-12.5,15.4-12.5.5,0,2.8,1.1,5.1,2.4ZM477.1,267.5c10.2,6.5,17.4,17.9,19,30.3.4,3.7.8,14.7.9,24.6v17.9l-8.7-.5c-14.4-.9-24.9-6.2-32.7-16.4-5.3-6.9-7.8-14.5-7.9-23.9-.1-7.1.3-9.1,3.7-17.7l3.9-9.6,5.6-2.1c3.1-1.1,6.5-2.7,7.6-3.5,2.8-2.1,3.9-2,8.6.9ZM315.5,321.7c2.2,1.6,6,4.2,8.5,5.6l4.5,2.7h-13.5c-7.4,0-14.5.3-15.7.6-2.1.6-2,.3,1.2-6.2,1.9-3.8,3.5-7.6,3.5-8.5,0-2.9,1.4-3,4.4-.1,1.7,1.6,4.9,4.2,7.1,5.9ZM437.6,324.8c3,6,3,6.3,1,5.8-1.1-.3-8.2-.6-15.6-.6h-13.5l6-3.9c3.3-2.1,8.5-5.9,11.5-8.4l5.5-4.7,1,2.8c.5,1.5,2.4,5.6,4.1,9ZM107,338.2c6.7,1.9,35.8,1.7,43.8-.4,6.1-1.5,6.2-1.5,6.2.6,0,3.6-4.6,11.9-8.6,15.8-15.4,14.7-39.9,9.1-47.4-10.9-2.5-6.6-2.5-7.6-.2-6.9.9.3,3.7,1.1,6.2,1.8ZM353,338c6.7,1.4,25.5,1.2,33.5-.5,3.8-.8,7.1-1.5,7.2-1.5.8,0,.1,14.3-.8,16.7-3,8.2-10.2,14.5-18.9,16.5-10.5,2.4-22.4-3.3-27.4-13.3-2.1-4.3-2.6-6.7-2.6-12.6,0-7.1.1-7.3,2.3-6.8,1.2.3,4.2.9,6.7,1.5ZM328.3,351.1c2.6,21.7,25.1,38,47.3,34.2,17.8-3.1,32.1-17.5,34.1-34.3l.6-5.2,13.6.4c11.8.3,14.2.7,17.9,2.6,5.8,3.1,11.3,8.7,14.2,14.7,2.5,4.9,2.5,5.4,2.8,36.2l.3,31.3h-180.3l.4-30.8.3-30.7,2.6-5.5c3.9-8.2,11.1-14.7,18.9-17.1,1.4-.4,7.9-.8,14.6-.8l12.1-.1.6,5.1Z" style="fill: #fff;"/>
  <path d="M78.9,218.9c-2.2,1.8-2.4,2.8-2.7,12.6-.3,6.7.1,11.7.8,13.5,2.2,5.4,11.3,6.1,13.9,1.1.6-1.1,1.1-7,1.1-13.1,0-10.4-.1-11.2-2.5-13.5-2.9-3-7.4-3.2-10.6-.6Z" style="fill: #fff;"/>
  <path d="M166.5,219.5c-2.3,2.2-2.5,3.1-2.5,12.9,0,12.1,1,15.1,5.6,16.6,3.7,1.2,8.6-.6,9.8-3.5.3-.9.6-6.6.6-12.6,0-10.3-.1-11.1-2.5-13.4-1.5-1.6-3.6-2.5-5.5-2.5s-4,.9-5.5,2.5Z" style="fill: #fff;"/>
  <path d="M103,264.7c-1.8,2.3-2.1,3.7-1.7,8,1.7,16.9,18.3,27.8,34.8,23,10.4-3.1,17.7-11.9,18.6-22.7.5-5.4.3-6.3-1.7-8.5-4.6-4.9-12.4-2.4-13.6,4.3-1.3,7.3-5.7,12.2-10.9,12.2s-11.5-6-11.5-11.3c0-7.2-9.6-10.6-14-5Z" style="fill: #fff;"/>
  <path d="M317.5,229.5c-1.6,1.5-2.5,3.6-2.5,5.5,0,3,3.7,8,6,8,.6,0,1,2.3,1,5.5,0,4.2.5,6,2,7.5,2.6,2.6,8,2.6,11.1.1,2.3-1.8,2.4-2.6,2.4-13.1s0-11.2-2.8-13.6c-2.3-2-3.9-2.4-8.8-2.4s-6.4.4-8.4,2.5Z" style="fill: #fff;"/>
  <path d="M402.9,228.9c-2.2,1.8-2.4,2.8-2.7,12.8-.3,9.8-.2,11.1,1.8,13.6,1.7,2.1,3,2.7,6,2.7,5.6,0,8-2.9,8-9.4,0-4.6.3-5.3,2.9-6.7,5.4-3.1,4.6-12.7-1.1-14.3-4.9-1.3-12.5-.6-14.9,1.3Z" style="fill: #fff;"/>
  <path d="M348.3,268c-5.4,2.2-5.7,12.5-.7,20.7,4.3,6.9,10.8,10.6,19.4,11.1,8.4.5,13.1-1,18.2-5.6,6.9-6.2,10.7-17.3,7.8-22.7-3.9-7.2-15-4.4-15,3.9,0,1.3-1.2,3.8-2.6,5.5-2,2.5-3.4,3.1-6.4,3.1-4.6,0-9-3.9-9-8.1,0-5.5-6.6-10-11.7-7.9Z" style="fill: #fff;"/>
</svg>