<?xml version="1.0" encoding="UTF-8"?>
<svg id="_Слой_1" data-name="Слой 1" xmlns="http://www.w3.org/2000/svg" viewBox="0 0 512 512">
  <path d="M343,10.1c-43.8,4.2-102.5,23.3-112.7,36.7-2.8,3.7-3.3,5.2-3.3,9.6s.6,6.1,3,9.5c2.6,3.5,7.3,7.3,10.2,8.3.5.2.1,3.7-.7,7.8-2.2,11-3,35.5-1.6,48,1.9,16.7,3.1,19,10.4,19,4.1,0,6.1-2,7.7-7.8,2.2-8.4,13.7-12.9,31-12,5.4.3,10.4.1,11.7-.5,2.7-1.2,4.7-5.9,3.9-9.2-1.1-4.4-4.8-5.8-16.4-6.3-11.7-.4-22.6,1.3-29.4,4.7l-3.8,1.8v-8.6c0-9.1,1.5-23.2,3-29.1.9-3.5,1-3.5,6.1-3.1,12.1.8,39.6-3.7,52.8-8.8l5.1-1.9v13.2c0,16.8.6,18,12.6,26.1,4.9,3.3,11.9,8.9,15.7,12.4,7.5,7.1,16.2,19.3,17.2,24.3,1.1,5,4.2,7.8,8.6,7.8s7.9-3.5,7.9-7.7c0-5,4.9-10.3,9.6-10.3,2.8,0,7,2.8,8.2,5.5,2.7,5.8.8,18.6-3.8,25.8-3.4,5.4-7,7.5-14.8,8.7-6.6,1.1-9.2,3.5-9.2,8.4,0,2.2.8,4,2.5,5.6,2.2,2,3.1,2.2,9.4,1.8,5.5-.4,8.3-1.3,13.4-4.1l6.5-3.5,4.3,4.4c2.4,2.5,7.7,6.8,11.7,9.5,7.5,5.2,23.6,13.9,25.8,13.9,1.1,0,1.6,2.4,3,15.6l.6,6-22.8,8.3c-65.9,23.8-121.4,40.2-136.2,40.1-6.2-.1-11.6-3.2-14-8.1-3-6.2-7.7-24.2-6.4-24.7.6-.2,4.2-2.5,8.1-5.3,13.4-9.4,19.3-21.1,13.2-26-4.6-3.8-9.6-2.1-14.4,4.9-1.5,2.1-4.7,5.3-7.2,7.1l-4.4,3.1-1.1-5.5c-1.1-5.1-1-5.7,1.3-8.7,8.2-11.1,5.1-26.1-6.7-31.7l-4.4-2.2,2-4.6c1.1-2.6,2.3-7.4,2.5-10.7.7-8-1.4-11.1-7.6-11.1-5.3,0-6.8,1.7-8.2,9-1.7,9.4-2.9,11-7.9,10.6-7.1-.5-11.3,5.8-8,11.9,1.6,2.9,8.6,6.6,17.3,9.1,10.9,3.1,12.4,6.8,5.2,12.4-4.2,3.1-4.3,4.9-1.6,18l1.8,9-2.6.6c-1.4.4-5.3.7-8.6.8-9.6.2-13.9,4.7-11.1,11.6,1.8,4.3,4.3,5,15.4,4.2l8.5-.6-.6,9.2c-.6,10.1-2.6,16.9-5.9,20.4-4.7,5-27,9.7-51.4,11-14.9.7-17.4,1.9-17.4,8.3,0,5.8,3.3,8,12,8h6.6l1.2,7.6c.7,4.1,2.6,10.8,4.3,14.9,3,7.3,9.7,17.9,12.8,20.2,2.4,1.9,6.5,1.5,9.5-.8,4.1-3.2,3.6-7.8-1.9-15.8-4.9-7.2-8.3-15.8-9.2-23l-.5-4.7,8.5-1.2c7.9-1.1,9-1.1,13.8.7,9.7,3.7,15.3,9,23.5,22.3,3.3,5.4,3.1,5.3,12.5,7.3,12.7,2.6,21.8,9.5,27.4,20.5l2.6,5.2-1.9,4.7c-2,4.6-3.6,11-4.8,18.9-.6,4.2-.7,4.3-2.7,2.7-1.2-.8-9.2-6.2-17.7-11.9-8.5-5.8-18.8-12.7-22.8-15.5-8.1-5.6-10.6-6.1-14.6-3-2,1.6-2.6,2.9-2.6,5.9,0,4.6,3,7.4,17.1,16.7,4.9,3.2,8.9,6.1,8.9,6.4s-2.6,2.3-5.7,4.5c-3.1,2.1-10.4,8.5-16.1,14.2l-10.4,10.3-11.2-10.8c-18.4-17.9-31.3-25.8-44-27-7.8-.7-11,.5-12.5,4.9-2.1,6,1.7,10.1,10.4,11.2,11.3,1.4,22.8,10,48,35.8,9.4,9.5,27.7,29.4,40.9,44,25.5,28.5,27,29.7,32.2,26.3,1.6-1,4-4.8,6.1-9.3,51.5-113.3,106.2-183.8,161.8-208.3,9.7-4.3,9.6-4.3,13.3.6,1.8,2.5,3.5,5.1,3.7,5.7.3.9-2.5,2.5-7.8,4.6-24.4,9.5-50.1,30.2-71.2,57.4-9.7,12.5-37.8,54.1-38.9,57.6-1.8,5.7,4.5,11.6,10.2,9.6,2-.7,6.8-7,18.2-23.9,18.6-27.7,26.4-37.8,39-50.9,17.6-18.2,35.8-30.4,56.6-37.9l7.1-2.6,3.7,3.8c2,2,4.1,5.3,4.6,7.2.6,2.1,1,37.3,1,93.6v90.2l2.6,2c3.4,2.7,6.4,2.7,9.8,0l2.6-2v-189l-2.1-4.2c-1.2-2.3-5.7-7.9-10-12.5-19-20.1-27.6-35.9-33-61.2-3.3-15.1-3.7-45.3-.9-75,3.1-34.9,3.7-60.6,1.6-70.2-2-9.2-8.7-23.2-14.6-30.8-5.6-7.2-6.7-8-11.1-8-2.9,0-4.2.6-5.8,2.6-3.1,4-2.6,6.4,3,14,6,8.1,11.2,18.7,12.9,26.4,1.7,7.3.8,34.5-2.5,70-1.4,15.1-2.5,28.5-2.5,29.8v2.2l-5.2-2.6c-7.9-4-18.7-11.7-24-17.1l-4.6-4.8,1.8-7c1.1-3.9,1.9-10.4,1.9-14.6.1-12.5-3.8-20.4-12.7-25.6-4.1-2.4-5.7-2.8-12.7-2.8-7.8,0-9.7.6-15.8,4.8-1.6,1-2.1.8-3.9-1.8-4.2-6-20.5-21.1-28-26l-7.7-5-.1-18.6c0-17.5-.1-18.8-2.1-21.4-1.9-2.3-2.7-2.6-6.3-2.2-2.3.2-7.7,2-12.1,4-17.1,7.7-43.5,12.2-58.2,9.9-7.5-1.2-13.6-3.7-13.6-5.7s20.9-11.5,35.8-16.4c29.9-9.8,68.1-16.3,86-14.6,16.3,1.5,32.1,6.5,44.8,14,9.6,5.7,16.7,4,16.7-4,0-5-2.7-7.4-16.1-13.9-21.5-10.5-42.2-14-67.9-11.5ZM456.6,256.9l3.1,8.9-4,1.2c-5.3,1.6-20.9,9.7-28.8,15-15.7,10.6-32.6,25.5-47.1,41.7l-10.2,11.5-6.3-27.3c-3.4-15-6.1-27.4-6-27.4.1-.1,10.1-3.3,22.2-7.3s33-11.2,46.5-16.1,25.2-8.9,26-9c1-.1,2.5,2.8,4.6,8.8ZM274.3,292.4c10.6,5.1,22.5,4.4,50.9-2.8l16.6-4.3.7,3.6c.3,2,.9,4.5,1.1,5.7.4,1.5-.2,2.3-2,3.2-3.9,1.7-11.4,9.1-14.1,13.6-3.4,5.9-5,15.8-3.7,23.1.5,3.3.9,6,.8,6.1,0,0-3.2,1.9-7,4.2-3.8,2.4-6.9,4.2-7.1,4-.1-.2-1.5-2.3-3.2-4.8-6.9-10.2-18.3-18.1-30.9-21.4-3.2-.8-6.5-2.3-7.2-3.3-7.7-10.7-11.7-15.6-14.6-17.8l-3.4-2.6,4.2-3.9c2.4-2.2,5.1-5.8,6.1-8l1.8-4.1,2.9,3.5c1.6,1.9,5.2,4.6,8.1,6ZM352.5,332.7l4.3,18.8-7.8,11c-9.6,13.5-22.2,33.4-30.3,47.9l-6.1,10.9-2-4.4c-1.4-3.2-2.1-7.2-2.4-14.7-1-25.4,5.9-38.2,25.3-47.3,10.2-4.8,11.6-7.1,8.6-14.8-3-7.5-3.5-13.1-1.6-17.7,1.6-3.8,6.4-9.8,7.3-9,.2.2,2.3,8.9,4.7,19.3ZM281.1,403.8c12.4,10.3,16.1,17.7,16.7,33.5l.5,10.8-7.4,15.9c-5.6,11.9-7.7,15.6-8.5,14.7-4.3-4.6-38.6-42.7-41.2-45.8l-3.4-3.9,4.6-5.3c9.4-11,26.9-24.4,32.1-24.6.6,0,3.5,2.1,6.6,4.7Z" style="fill: #fff;"/>
  <path d="M129,85.2c-21.1,4.4-44.7,13.9-60.7,24.4-30.3,19.7-51.4,45.9-59.5,74-2,6.8-2.3,10.2-2.3,23.9,0,12.1.4,17.5,1.7,22.3l1.8,6.2-3.5,4.6c-5.2,6.8-6.8,13.5-6.3,26.8.3,9.7.7,11.8,3.1,16.3,3.5,6.7,8.1,11.9,13.6,15.5,4.1,2.6,4.8,3.6,7.8,12,9.5,26.5,20.9,42,37.3,50.2,10.4,5.1,19.5,6.9,34.5,6.5,6.9-.2,12.5-.2,12.5.1s-.9,6.6-2,14c-2.5,16.6-2.7,39.9-.5,52.6,3.2,18.4,10.7,38.1,21.5,55.9,6.1,10.1,9.2,12.9,13.4,12.1,8.6-1.8,8.7-7.2.4-20.9-14.8-24.5-20.8-45.2-20.8-71.7,0-14.8,1.2-23.9,6.5-51.3,4.2-21.8,6.5-38.4,6.5-47.8v-6.9h3.8c8.5,0,19.9-8.6,22.1-16.7,2.6-9.2.1-14.3-6.9-14.3-3,0-4.3.6-5.9,2.6-1.2,1.5-2.1,3.5-2.1,4.6s-1.3,3.3-2.9,4.9c-5.4,5.4-14.5,3.3-22.6-5.1-2.6-2.8-3.6-4.4-2.7-4.7,5.3-2,21.2-14.1,29.8-22.7,17-17.1,23.5-31.1,24-51.9l.3-11.8,5.1-7c10.5-14,15.3-23.4,22.9-44.3.6-1.5,1.9.2,5.9,8.1l5.2,10.1-9.3,11.9c-13.6,17.3-15.7,20.6-15.7,24.7,0,4.4,2.9,7.6,6.9,7.6,4.7,0,5.8-.8,11.6-8.9,3-4.2,9.3-12.6,14-18.6,4.6-6.1,8.7-12.4,9.1-14,1-5.7-10.9-29.7-20.1-40.2-2.7-3.1-4.6-6.5-5.4-9.7-3.2-13-10.7-20.4-24.9-24.7-3.7-1.1-4.7-1-7.7.4-2.6,1.2-3.5,2.4-4.1,5.2-.9,5,1.4,7.9,7.7,10,10.5,3.5,14.6,10,13.5,20.9-2.3,22.2-14.5,44.6-36,66.2-18,17.9-36.7,30.5-62.8,42-13.2,5.9-15.8,7.9-15.8,12.6,0,3.4,3.9,7.8,6.9,7.8,5.5,0,36-14.7,51.6-24.8,5-3.2,12.7-8.8,17.2-12.5l8.2-6.6-.6,3.2c-4.2,22-24.5,43-56.4,58.1-10.6,5.1-34.1,13.6-37.3,13.6-2.2,0-5.6,4.9-5.6,8.2s3.9,7.8,6.9,7.8c2.8,0,23.2-6.3,31.4-9.7l6.9-2.8,8.6,8.5,8.7,8.5-.1,14c-.1,9.9-.8,17.1-2.2,24.4-1.2,5.7-2.3,10.5-2.5,10.7-1.3,1.3-13.8,2.5-22.2,2.2-26.1-1.2-39.7-14.3-51.9-50.1l-4.1-12.1-6-3c-8.9-4.6-11.9-9.4-12.4-19.8-.6-14.2,1.1-16.7,25.9-37.4,18.5-15.4,30.6-27.5,36.7-36.7,5.6-8.4,6.1-12.8,1.9-16.3-5.2-4.6-8.7-3.1-15,6.4-4.7,7.2-21.8,24.3-34.8,34.9l-7.5,6.2-.7-3.7c-.3-2-.6-8-.6-13.3,0-22.6,9.7-42.7,30.4-63.4,15.7-15.7,30.8-25.7,50.2-33.4,10-3.9,28.8-9.3,37.3-10.6,5.7-.9,8.1-3.4,8.1-8.4,0-3.1-.6-4.4-2.6-6-3.2-2.5-4.2-2.5-16.4.1Z" style="fill: #fff;"/>
  <path d="M287.2,147.9c-2.1,2.1-6.3,5.1-9.3,6.6-7.6,3.9-8.9,5.2-8.9,9.6s3.5,7.9,7.8,7.9c3.4,0,14.2-5.5,19.2-9.7,7-6,8.6-11,4.9-15.7-1.6-2-2.9-2.6-5.9-2.6-3.2,0-4.6.7-7.8,3.9Z" style="fill: #fff;"/>
  <path d="M212.5,200.1c-2.9,2.7-7.7,6.2-10.6,7.7-6.2,3.2-7.9,6.3-6,11,1.7,4.1,6,5.8,10.9,4.4,9.1-2.7,22.2-14.7,22.2-20.2,0-4.1-3.9-8-8-8-2.4,0-4.4,1.2-8.5,5.1Z" style="fill: #fff;"/>
  <path d="M338.2,440.2c-2,2.2-18,33.5-23.6,46.2-1.4,3.2-2.6,7-2.6,8.5,0,5.7,5.6,9.4,10.9,7.1,3.8-1.6,29.6-54.3,28.6-58.3-1.5-5.7-9.3-7.7-13.3-3.5Z" style="fill: #fff;"/>
</svg>