<?xml version="1.0" encoding="UTF-8"?>
<svg id="_Слой_1" data-name=" Слой 1" xmlns="http://www.w3.org/2000/svg" viewBox="0 0 453.75 423.59">
  <path d="M150.4,1.16C96.6,11.06,45.3,58.06,18.4,122.16c-31.1,74-21.9,163.9,21,206.9,9.4,9.3,18.8,15.6,32.4,21.7,19,8.4,28.4,10.8,46.6,11.6,20.4,1,39.8-2.2,57.9-9.4l8.8-3.5,3.1,3.9c6.1,7.6,21.4,22.6,30.2,29.8,23.5,19,47.1,31,73.5,37.2,14.6,3.4,39.4,4.3,54.1,1.8,20.2-3.4,40.7-10.8,54.6-19.7,28.8-18.7,51.1-59.4,53-96.8,1-19-3.1-45.9-10.2-67.5-18.5-55.9-68.4-113.6-120.7-139.5-6.8-3.3-16.9-7.7-22.6-9.8l-10.3-3.7-2.5-6c-1.4-3.3-2.9-7.4-3.4-9-4.2-15.8-21.6-38.1-39.4-50.4-9.8-6.7-26.2-14.6-36.1-17.3-6.7-1.8-11.3-2.2-29-2.4-15.2-.2-23.2.1-29,1.1h0ZM205.1,12.56c7.9,2.1,19.6,7.1,25.8,11,2.33,1.53,2.53,2.07.6,1.6-43-9.6-88.4,16.5-124.6,71.7-21.4,32.6-35.8,69.6-41.6,107-2.5,15.7-2.5,46.3,0,61.2,6.3,38.4,22.5,68.5,45.7,84.8,2.4,1.7,2.4,1.8-2.1,1.2-21.8-2.9-41.8-13.1-57.2-29.2-17.4-18.2-27.3-37.3-33-63.5-1.9-8.8-2.2-13.2-2.2-31.7,0-60.6,17-112.1,50.9-154.5,24.3-30.3,49.7-49.1,77-56.9,20.7-5.9,44.3-7,60.7-2.7h0ZM233.3,36.66c16,5,30.8,18.5,39.8,36.5,11.4,22.6,16.5,51.8,14.7,84.5-2.3,40.4-20.1,90.7-44,124.4l-6.3,8.8-2.9-3.3c-1.6-1.9-6.7-9.1-11.3-16.1l-8.5-12.6,4-7.4c24.3-44.7,34.8-108.2,25.5-154.8-3.6-18.2-13.7-41.7-23.4-54.5-7.2-9.5-7.2-8.9-.1-8.1,3.5.4,9.1,1.6,12.5,2.6h0ZM198.6,37.86c6.4,7,24.1,39,23.1,41.8-.2.6-4.9,2.6-10.5,4.5-12.5,4.2-19.3,7.6-31,15.4-11.2,7.5-20.1,16.8-29.3,30.8-17.4,26.4-23.4,46.2-23.4,76.8,0,28.5,6,52.5,21,84.4,3,6.3,5.3,11.5,5.2,11.6-.2.2-3.9,2.9-8.3,6-15.4,11.1-29,15.7-41.7,14.1-6.4-.8-7.4-2-14.2-15.4-10.8-21.5-15.6-43.8-15.6-73.2,0-24.6,3.5-45.4,11.5-69.5,20.8-62.3,61.7-112.5,104-127.6,6.5-2.3,6.8-2.3,9.2.3h0ZM229.3,102.36c.8,3.8,1.8,8.6,2.1,10.8.4,2.2.9,4.7,1.1,5.6.4,1.4-1.3,1.6-13.3,1.7-7.6,0-16,.5-18.8,1-2.7.6-5.1.9-5.3.7-.7-.6,9.8-12.7,14.3-16.4,4.9-4.1,15.1-10,17.2-10.1.6,0,1.8,3,2.7,6.7ZM313.9,105.86c10.9,5,27,14.9,36.9,22.5,10.6,8.3,34.3,31.9,43.5,43.3,23.6,29.5,38.1,59.4,45.3,93.5,2.4,11.5,2.7,15.2,2.7,32.5.1,15.7-.2,20.8-1.7,26-2.8,10.2-7.2,18.5-12.9,24.6-4.6,4.9-12.7,11.4-14.1,11.4-.3,0,.5-2.8,1.6-6.3,1.9-5.5,2.2-8.3,2.1-24.7,0-16.1-.4-20.2-2.7-31.2-7.2-34.2-21.7-64.6-44.3-92.8-15.4-19.2-39.7-41.1-61.2-55.1l-9.9-6.4-.7-11c-.4-6.1-1.4-14.6-2.2-19-.7-4.4-1.7-9.7-2-11.8l-.7-3.7,6.4,2.4c3.5,1.3,9.8,4,13.9,5.8h0ZM193.4,106.86c-6.7,7.5-13.6,20.8-16.6,32.3-1.8,6.5-2.2,11-2.2,24-.1,16.9.8,24.8,5,40.9,7.6,29.3,25.4,63.3,47.9,91.6,10.2,12.7,32.6,34.7,44,43.2,26.7,19.8,54,32,82.1,36.8,21.9,3.8,45.9,2,59.9-4.4,3.2-1.5,5.9-2.5,6-2.3.9.8-12.1,14.9-17.9,19.6-27.6,21.9-69.4,28.2-107.2,16-35.6-11.6-82.1-46.4-108.5-81.5-27.6-36.6-45-83.8-45-122.3,0-34.2,17.5-72.4,41.1-89.7,4.6-3.3,15.9-10.4,16.7-10.4.2,0-2.2,2.8-5.3,6.2h0ZM233.9,143.56c0,18.5-4.8,42.2-12.2,60.9-4.3,10.8-15.8,32.4-17.5,32.9-1.1.4-6-10.1-9.9-20.7-6.5-18.2-9.4-34.3-9.4-52,0-10.8,1.9-25.2,3.4-26.8,1.1-1.1,13.1-1.9,28.9-2.1l16.7-.1v7.9h0ZM306.7,166.06c9.7,6,16.7,11.8,29,23.9,32.7,32.1,55.5,72.6,64.4,114.2,1.8,8.4,2.3,14.1,2.3,24.5,0,16.1-1.5,21.9-7.8,31.2-4,5.8-4.7,6.4-9.1,7.2-6.4,1.3-26.2-.7-39.2-3.9-35-8.5-65.3-26.3-93.6-55.1l-8.7-8.9,5-6.5c11.3-14.8,23.6-37.3,31.4-57.5s15.6-50.6,17.1-66.8c.4-3.7,1-6.7,1.3-6.7.4,0,3.9,2,7.9,4.4h0ZM170.6,329.66l7.3,11-3.9,2c-6.8,3.4-18.8,6.2-27.5,6.3-9.3.1-17-1.5-24.1-5.1l-5-2.5,7-1.8c8.7-2.2,22.9-9.4,31.5-15.8,3.6-2.7,6.7-5,7-5s3.8,4.9,7.7,10.9h0Z" style="fill: #a6a6a6; opacity: .8;"/>
</svg>