<?xml version="1.0" encoding="UTF-8"?>
<svg id="_Слой_1" data-name="Слой 1" xmlns="http://www.w3.org/2000/svg" viewBox="0 0 96 96">
  <path d="M11.66,47.23c25.14-11.06,57.66-24.54,62.15-26.41,11.78-4.88,15.39-3.95,13.59,6.87-1.29,7.77-5.03,33.51-8,49.53-1.77,9.5-5.73,10.63-11.96,6.52-3-1.98-18.12-11.98-21.4-14.33-3-2.14-7.13-4.71-1.95-9.78,1.84-1.81,13.93-13.35,23.35-22.33,1.23-1.18-.32-3.12-1.74-2.17-12.69,8.42-30.29,20.1-32.53,21.62-3.38,2.3-6.63,3.35-12.47,1.68-4.41-1.27-8.71-2.78-10.39-3.35-6.45-2.22-4.92-5.09,1.35-7.84Z" style="fill: #fff;"/>
</svg>