<?xml version="1.0" encoding="UTF-8"?>
<svg id="_Слой_1" data-name="Слой 1" xmlns="http://www.w3.org/2000/svg" viewBox="0 0 96 96">
  <path d="M76.31,19.71c-7.54-7.55-17.58-11.71-28.26-11.71-22.02,0-39.95,17.92-39.96,39.94,0,7.04,1.84,13.91,5.33,19.97l-5.42,20.09,20.93-4.95c5.84,3.18,12.4,4.86,19.09,4.86h.02c22.02,0,39.94-17.92,39.96-39.94,0-10.68-4.14-20.71-11.69-28.26ZM67.59,62.22c-.83,2.33-4.91,4.58-6.74,4.74-1.83.17-3.55.83-11.98-2.5-10.15-4-16.56-14.4-17.05-15.07-.5-.67-4.08-5.41-4.08-10.32s2.58-7.33,3.5-8.32c.92-1,2-1.25,2.66-1.25s1.33,0,1.91.02c.71.03,1.5.06,2.25,1.72.89,1.98,2.83,6.91,3.08,7.41s.42,1.08.08,1.75-.5,1.08-1,1.66c-.5.58-1.05,1.3-1.5,1.75-.5.5-1.02,1.04-.44,2.04.58,1,2.58,4.27,5.55,6.91,3.82,3.4,7.03,4.45,8.03,4.96,1,.5,1.58.42,2.16-.25.58-.66,2.5-2.91,3.16-3.91s1.33-.83,2.25-.5,5.82,2.75,6.82,3.25c1,.5,1.66.75,1.91,1.16.25.41.25,2.41-.58,4.74Z" style="fill: #fff;"/>
</svg>